<svg id="Calque_1" data-name="Calque 1" xmlns="http://www.w3.org/2000/svg" viewBox="0 0 1044.79 443.51"><defs><style>.cls-1{fill:#eee2cf;}.cls-2{fill:#f8b133;}.cls-10,.cls-11,.cls-12,.cls-13,.cls-14,.cls-3,.cls-4,.cls-7{fill:none;stroke-linecap:round;stroke-linejoin:round;}.cls-11,.cls-12,.cls-3{stroke:#fff;}.cls-3,.cls-7{stroke-width:9px;}.cls-14,.cls-4{stroke:#093046;}.cls-10,.cls-11,.cls-4{stroke-width:18px;}.cls-5{fill:#35a8e0;}.cls-6{fill:#e3edf2;}.cls-7{stroke:#f9b513;}.cls-8{fill:#8dc9e6;}.cls-9{fill:#093046;}.cls-10,.cls-13{stroke:#39a7df;}.cls-12,.cls-13,.cls-14{stroke-width:19px;}</style></defs><rect class="cls-1" width="1044.79" height="443.51"/><rect class="cls-2" x="70.03" y="60.61" width="159.66" height="143.32" rx="15.49"/><path class="cls-3" d="M110.93,142.25A34.61,34.61,0,0,1,107.76,128a35.06,35.06,0,0,1,1.54-10.27,33.93,33.93,0,0,1,1.55-4.08,35.47,35.47,0,0,1,17.73-17.62,35.77,35.77,0,0,1,37.57,5.2"/><path class="cls-4" d="M89.21,159.13l58.58-24.68h0c.51-.2,23.72-9.78,38.66-15.94A11.85,11.85,0,0,1,202.72,128c6,46.32-50.84,81.81-90.29,48.37"/><rect class="cls-5" x="269.12" y="57.89" width="159.66" height="143.32" rx="15.49"/><path class="cls-3" d="M310,139.53a34.12,34.12,0,0,1-1.63-24.5A35.63,35.63,0,0,1,359.66,94.7a35.35,35.35,0,0,1,5.58,3.84"/><path class="cls-4" d="M286.51,153.92l58.59-24.68h0c.51-.2,23.72-9.78,38.65-15.94A11.85,11.85,0,0,1,400,122.75c6,46.32-50.83,81.81-90.28,48.37"/><rect class="cls-6" x="66.35" y="238.33" width="159.66" height="143.32" rx="15.49"/><path class="cls-7" d="M107.25,320a34.44,34.44,0,0,1-.08-28.57,35.43,35.43,0,0,1,17.73-17.62,36,36,0,0,1,25.46-1.45,34.82,34.82,0,0,1,6.54,2.82,35.7,35.7,0,0,1,5.57,3.83"/><path class="cls-4" d="M85.53,336.84l58.59-24.68h0c.51-.2,23.71-9.78,38.65-15.94A11.86,11.86,0,0,1,199,305.67c6,46.33-50.83,81.82-90.28,48.37"/><rect class="cls-8" x="263.66" y="238.33" width="159.66" height="143.32" rx="15.49"/><path class="cls-3" d="M304.56,320a34.56,34.56,0,0,1-3.17-14.22,35.2,35.2,0,0,1,1.54-10.28,34.44,34.44,0,0,1,1.55-4.07,35.71,35.71,0,0,1,43.18-19.07,34.54,34.54,0,0,1,6.54,2.82,35.37,35.37,0,0,1,5.58,3.83"/><path class="cls-4" d="M282.84,336.84l58.58-24.68h0c.51-.2,23.72-9.78,38.66-15.94a11.86,11.86,0,0,1,16.27,9.46c6,46.33-50.84,81.82-90.29,48.37"/><rect class="cls-9" x="459.64" y="54.78" width="159.66" height="143.32" rx="15.49"/><path class="cls-3" d="M500.54,136.42a34,34,0,0,1-1.62-24.5,33.88,33.88,0,0,1,1.54-4.08,35.47,35.47,0,0,1,17.73-17.62,36,36,0,0,1,25.46-1.45,35.5,35.5,0,0,1,6.54,2.82,36.4,36.4,0,0,1,5.57,3.83"/><path class="cls-10" d="M477,150.8l58.59-24.68h0c.51-.2,23.72-9.78,38.65-15.94a11.86,11.86,0,0,1,16.28,9.46c6,46.33-50.84,81.82-90.29,48.37"/><rect class="cls-9" x="455.96" y="238.33" width="159.66" height="143.32" rx="15.49"/><path class="cls-7" d="M496.86,320a34.27,34.27,0,0,1-.07-28.57A35.71,35.71,0,0,1,540,272.32,35.6,35.6,0,0,1,552.08,279"/><path class="cls-10" d="M473.36,334.35,532,309.67h0l38.65-15.94a11.86,11.86,0,0,1,16.27,9.46c6,46.32-50.84,81.82-90.28,48.37"/><path class="cls-3" d="M691.06,136.42a34,34,0,0,1-1.62-24.5,35.64,35.64,0,0,1,56.84-16.5"/><path class="cls-11" d="M667.56,150.8l58.58-24.68h0c.51-.2,23.72-9.78,38.65-15.94a11.86,11.86,0,0,1,16.28,9.46c6,46.33-50.84,81.82-90.29,48.37"/><path class="cls-7" d="M682.93,316.25a34.12,34.12,0,0,1-1.63-24.5,33.15,33.15,0,0,1,1.55-4.07,35.49,35.49,0,0,1,32.37-20.74,35.56,35.56,0,0,1,17.35,4.48,35.41,35.41,0,0,1,5.57,3.84"/><path class="cls-12" d="M659.42,330.64,718,306h0L756.66,290a11.85,11.85,0,0,1,16.27,9.46c6,46.32-50.83,81.82-90.28,48.37"/><path class="cls-7" d="M869,316.25A34.56,34.56,0,0,1,865.82,302a35.08,35.08,0,0,1,1.54-10.28,33.15,33.15,0,0,1,1.55-4.07,35.49,35.49,0,0,1,32.37-20.74,35.56,35.56,0,0,1,22.93,8.32"/><path class="cls-13" d="M845.48,330.64,904.07,306h0c.51-.2,23.71-9.78,38.65-15.94A11.85,11.85,0,0,1,959,299.47c6,46.32-50.83,81.82-90.28,48.37"/><path class="cls-7" d="M863.53,136.42a34.12,34.12,0,0,1-1.63-24.5,33.93,33.93,0,0,1,1.55-4.08,35.47,35.47,0,0,1,17.73-17.62,36,36,0,0,1,25.45-1.45,35.6,35.6,0,0,1,12.11,6.65"/><path class="cls-14" d="M840,150.8l58.59-24.68h0l38.65-15.94a11.86,11.86,0,0,1,16.27,9.46c6,46.33-50.83,81.82-90.28,48.37"/></svg>