<svg id="Calque_1" data-name="Calque 1" xmlns="http://www.w3.org/2000/svg" viewBox="0 0 750 500"><defs><style>.cls-1,.cls-7{fill:#fff;}.cls-2{fill:#f8b133;}.cls-3{fill:#35a8e0;}.cls-4{fill:#093046;}.cls-5{fill:#8dc9e6;}.cls-6{fill:#e3edf2;}.cls-11,.cls-7{font-size:18px;}.cls-11,.cls-12,.cls-13,.cls-7{font-family:ArialRoundedMTBold, Arial Rounded MT Bold;}.cls-8{letter-spacing:-0.04em;}.cls-9{letter-spacing:-0.01em;}.cls-10{letter-spacing:-0.02em;}.cls-11,.cls-12,.cls-13{fill:#1d1d1b;}.cls-12{font-size:48px;}.cls-13{font-size:14px;}.cls-14{letter-spacing:-0.05em;}</style></defs><rect class="cls-1" x="0.5" y="0.5" width="749" height="499"/><path d="M749,1V499H1V1H749m1-1H0V500H750V0Z"/><rect class="cls-2" x="51.26" y="57.15" width="116.4" height="116.4"/><rect class="cls-3" x="184.56" y="57.15" width="116.4" height="116.4"/><rect class="cls-4" x="51.26" y="191.8" width="116.4" height="116.4"/><rect class="cls-5" x="184.56" y="191.8" width="116.4" height="116.4"/><rect class="cls-6" x="51.26" y="323.55" width="251.04" height="128.29"/><text class="cls-7" transform="translate(86.14 160.52)">Soleil</text><text class="cls-7" transform="translate(68.63 275.17)">P<tspan class="cls-8" x="12.01" y="0">r</tspan><tspan x="19.2" y="0">ondeur</tspan><tspan x="2.2" y="21.6">maritime</tspan></text><text class="cls-7" transform="translate(215.01 157.8)">L<tspan class="cls-9" x="10.87" y="0">a</tspan><tspan class="cls-10" x="21.33" y="0">g</tspan><tspan x="32.13" y="0">on</tspan></text><text class="cls-7" transform="translate(225.87 295.19)">Ciel</text><text class="cls-11" transform="translate(139.4 437.7)">Nu<tspan class="cls-9" x="24.55" y="0">a</tspan><tspan class="cls-10" x="35.01" y="0">g</tspan><tspan x="45.81" y="0">e</tspan></text><text class="cls-12" transform="translate(406.39 230.51)">Couleu<tspan class="cls-10" x="164.04" y="0">r</tspan><tspan x="183.87" y="0">s</tspan></text><text class="cls-13" transform="translate(408.79 269.49)">Les couleu<tspan class="cls-10" x="73.66" y="0">r</tspan><tspan x="79.45" y="0">s du lo</tspan><tspan class="cls-10" x="123.49" y="0">g</tspan><tspan x="131.89" y="0">o </tspan><tspan class="cls-10" x="143.85" y="0">r</tspan><tspan class="cls-9" x="149.63" y="0">e</tspan><tspan x="157.77" y="0">p</tspan><tspan class="cls-10" x="166.52" y="0">r</tspan><tspan x="172.3" y="0">ennent </tspan><tspan x="0" y="16">les teintes n</tspan><tspan class="cls-10" x="81.55" y="16">a</tspan><tspan x="89.52" y="16">tu</tspan><tspan class="cls-10" x="102.93" y="16">r</tspan><tspan x="108.71" y="16">elles de l’hori</tspan><tspan class="cls-9" x="199.61" y="16">z</tspan><tspan x="206.72" y="16">on </tspan><tspan x="0" y="32">océaniqu</tspan><tspan class="cls-14" x="62.87" y="32">e</tspan><tspan x="70.49" y="32">.</tspan></text></svg>