<svg id="Calque_1" data-name="Calque 1" xmlns="http://www.w3.org/2000/svg" viewBox="0 0 750 500"><defs><style>.cls-1{fill:#e3edf2;}.cls-2{font-size:48px;}.cls-2,.cls-8{fill:#093046;}.cls-2,.cls-4{font-family:ArialRoundedMTBold, Arial Rounded MT Bold;}.cls-3{letter-spacing:-0.02em;}.cls-4{font-size:14px;fill:#1d1d1b;}.cls-5{letter-spacing:0.01em;}.cls-6{letter-spacing:-0.01em;}.cls-7{fill:#f9b513;}.cls-9{letter-spacing:-0.04em;}.cls-10,.cls-11{fill:none;stroke-linecap:round;stroke-linejoin:round;}.cls-10{stroke:#093046;stroke-width:19px;}.cls-11{stroke:#f9b513;stroke-width:9px;}</style></defs><rect class="cls-1" width="750" height="500"/><text class="cls-2" transform="translate(154.34 82.8)">Histoi<tspan class="cls-3" x="134.48" y="0">r</tspan><tspan x="154.31" y="0">e</tspan></text><text class="cls-4" transform="translate(153.76 110.63)">Mélan<tspan class="cls-3" x="40.55" y="0">g</tspan><tspan x="48.95" y="0">e ent</tspan><tspan class="cls-3" x="82.5" y="0">r</tspan><tspan x="88.29" y="0">e la lett</tspan><tspan class="cls-3" x="137.74" y="0">r</tspan><tspan x="143.53" y="0">e «S»</tspan><tspan x="-59.94" y="16">et le dessin </tspan><tspan class="cls-5" x="20.44" y="16">d</tspan><tspan x="29.36" y="16">’un hori</tspan><tspan class="cls-6" x="80.99" y="16">z</tspan><tspan x="88.1" y="16">on ensolleillé,</tspan><tspan x="-82" y="32">ce lo</tspan><tspan class="cls-3" x="-49.61" y="32">g</tspan><tspan x="-41.21" y="32">o </tspan><tspan class="cls-3" x="-29.25" y="32">r</tspan><tspan class="cls-6" x="-23.47" y="32">e</tspan><tspan x="-15.33" y="32">présente à la </tspan><tspan class="cls-6" x="76.44" y="32">f</tspan><tspan x="80.92" y="32">ois la p</tspan><tspan class="cls-3" x="128.62" y="32">r</tspan><tspan x="134.4" y="32">emiè</tspan><tspan class="cls-3" x="167.22" y="32">r</tspan><tspan x="173" y="32">e</tspan><tspan x="-92.07" y="48">lett</tspan><tspan class="cls-3" x="-70.04" y="48">r</tspan><tspan x="-64.26" y="48">e de mon prénom et le l</tspan><tspan class="cls-3" x="93.11" y="48">e</tspan><tspan x="101.08" y="48">vé du soleil.</tspan><tspan x="-50.24" y="80">Sonny prénom issu du mot an</tspan><tspan class="cls-6" x="149.26" y="80">g</tspan><tspan x="157.83" y="80">lais</tspan><tspan x="-16.37" y="96">«Sunny» signi</tspan><tspan class="cls-5" x="78.45" y="96">f</tspan><tspan x="83.28" y="96">iant ensoleillé.</tspan></text><path class="cls-7" d="M461.63,181.93a6.74,6.74,0,0,1-6.15-4.06,61.12,61.12,0,0,1-.13-49.77,60.61,60.61,0,0,1,30-30.61,59.38,59.38,0,0,1,43-2.53,59.53,59.53,0,0,1,20.5,11.55,7.06,7.06,0,0,1,.83,9.77,6.64,6.64,0,0,1-9.52.86,45.93,45.93,0,0,0-7.31-5.16,45.09,45.09,0,0,0-8.57-3.79,46.18,46.18,0,0,0-33.43,2,47.16,47.16,0,0,0-25.25,29.15,46.66,46.66,0,0,0,2.13,32.82,7,7,0,0,1-3.34,9.19A6.52,6.52,0,0,1,461.63,181.93Z"/><path class="cls-8" d="M513.6,258.57c-22,0-43.56-8-61.62-23.74a14.91,14.91,0,0,1-1.66-20.63,14,14,0,0,1,20.11-1.7c22.05,19.18,50.38,22.18,75.77,8,25.65-14.3,39.95-41.59,36.44-69.52a3.54,3.54,0,0,0-1.75-2.7,3.31,3.31,0,0,0-3.1-.21l-19,8.06-38.44,16.26-.47.21-88,38a14.15,14.15,0,0,1-18.69-7.81,14.78,14.78,0,0,1,7.61-19.17l87.39-37.77a9.7,9.7,0,0,1,.93-.41l38.77-16.41,19-8.06a31.12,31.12,0,0,1,28.3,2,32.74,32.74,0,0,1,15.73,24.28c5,40-15,78.86-51.11,99A94.61,94.61,0,0,1,513.6,258.57Z"/><text class="cls-4" transform="translate(105.47 236.93)">La <tspan class="cls-9" x="20.28" y="0">r</tspan><tspan x="25.87" y="0">ot</tspan><tspan class="cls-3" x="39.29" y="0">a</tspan><tspan x="47.26" y="0">tion à ~20° dessine l’espoir</tspan><tspan x="53.01" y="16">é</tspan><tspan class="cls-6" x="61.33" y="16">v</tspan><tspan x="68.74" y="16">oqué par le dé</tspan><tspan class="cls-6" x="165.6" y="16">b</tspan><tspan x="174.17" y="16">ut </tspan><tspan class="cls-5" x="191.08" y="16">d</tspan><tspan x="200" y="16">’une</tspan><tspan x="117.18" y="32">nou</tspan><tspan class="cls-6" x="142.55" y="32">v</tspan><tspan x="149.95" y="32">elle journée</tspan></text><text class="cls-4" transform="translate(152.87 394.49) rotate(-86.73)">S</text><text class="cls-4" transform="translate(155.17 379.38) rotate(-62.11)">o</text><text class="cls-4" transform="translate(163.21 367.25) rotate(-42.13)">l</text><text class="cls-4" transform="matrix(0.92, -0.38, 0.38, 0.92, 171.05, 361.06)">e</text><text class="cls-4" transform="translate(184.91 356.93) rotate(-2.76)">i</text><text class="cls-4" transform="translate(194.97 357.41) rotate(13.37)">l</text><path class="cls-10" d="M132.73,420.49l58.59-24.68h0c.51-.2,23.72-9.78,38.65-15.94a11.86,11.86,0,0,1,16.28,9.46c6,46.32-50.84,81.82-90.29,48.37"/><path class="cls-11" d="M333.15,390.77a35.08,35.08,0,0,1,1.54-10.28,33.93,33.93,0,0,1,1.55-4.08,35.5,35.5,0,0,1,32.37-20.73A35.56,35.56,0,0,1,386,360.16a35.35,35.35,0,0,1,5.58,3.84"/><text class="cls-4" transform="matrix(0.92, -0.39, 0.39, 0.92, 315.48, 418.25)">H</text><text class="cls-4" transform="translate(333.04 410.85) rotate(-22.84)">o</text><text class="cls-4" transform="translate(348.58 404.31) rotate(-22.84)">r</text><text class="cls-4" transform="translate(361.96 398.67) rotate(-22.84)">i</text><text class="cls-4" transform="matrix(0.92, -0.38, 0.38, 0.92, 373.19, 393.95)">z</text><text class="cls-4" transform="matrix(0.92, -0.38, 0.38, 0.92, 387.53, 388.04)">o</text><text class="cls-4" transform="matrix(0.92, -0.38, 0.38, 0.92, 403.11, 381.61)">n</text><path class="cls-10" d="M425.05,386.88c6,46.33-50.84,81.82-90.29,48.37"/><path class="cls-11" d="M524.16,405a34.18,34.18,0,0,1-1.62-24.5,33.93,33.93,0,0,1,1.55-4.08,35.5,35.5,0,0,1,32.37-20.73,35.56,35.56,0,0,1,17.35,4.48,34.75,34.75,0,0,1,5.57,3.84"/><text class="cls-4" transform="matrix(0.98, 0.19, -0.19, 0.98, 543.2, 447.7)">O</text><text class="cls-4" transform="translate(564.95 449.52) rotate(-11.26)">c</text><text class="cls-4" transform="translate(582.84 444.18) rotate(-30.11)">é</text><text class="cls-4" transform="translate(598.07 433.45) rotate(-48.37)">a</text><text class="cls-4" transform="translate(609.2 418.32) rotate(-67.92)">n</text><path class="cls-10" d="M502.44,420.49,561,395.81h0c.51-.2,23.72-9.78,38.65-15.94A11.85,11.85,0,0,1,616,389.32"/></svg>