<svg id="Calque_1" data-name="Calque 1" xmlns="http://www.w3.org/2000/svg" viewBox="0 0 600 400"><defs><style>.cls-1{fill:#39b54a;}.cls-2{font-size:33.53px;font-family:ChevinPro-ExtraBold, Chevin Pro;font-weight:800;}.cls-2,.cls-4,.cls-6{fill:#fff;}.cls-3{letter-spacing:-0.06em;}.cls-4{font-size:25.64px;font-family:ChevinPro-Thin, Chevin Pro;font-weight:200;}.cls-5{letter-spacing:-0.02em;}</style></defs><rect class="cls-1" x="0.09" y="119" width="600.77" height="162"/><text class="cls-2" transform="translate(263.1 199.68)">ANIM<tspan class="cls-3" x="79.98" y="0">A</tspan><tspan x="97.48" y="0">TIONS</tspan></text><text class="cls-4" transform="translate(240.91 223.18)">CROI<tspan class="cls-5" x="50.72" y="0">X</tspan><tspan x="63.98" y="0" xml:space="preserve"> DE PHARMACIE</tspan></text><path class="cls-6" d="M211,178.5H196.78a5.63,5.63,0,0,1-5.64-5.64V158.64A5.64,5.64,0,0,0,185.5,153H153.78a5.63,5.63,0,0,0-5.64,5.64v14.22a5.64,5.64,0,0,1-5.64,5.64H128.28a5.63,5.63,0,0,0-5.64,5.64v31.72a5.63,5.63,0,0,0,5.64,5.64H142.5a5.64,5.64,0,0,1,5.64,5.64v14.22a5.63,5.63,0,0,0,5.64,5.64H185.5a5.64,5.64,0,0,0,5.64-5.64V227.14a5.63,5.63,0,0,1,5.64-5.64H211a5.64,5.64,0,0,0,5.64-5.64V184.14A5.64,5.64,0,0,0,211,178.5Z"/></svg>