<?xml version="1.0" encoding="utf-8"?>
<!-- Generator: Adobe Illustrator 25.2.3, SVG Export Plug-In . SVG Version: 6.00 Build 0)  -->
<svg version="1.1" id="Capa_1" xmlns="http://www.w3.org/2000/svg" xmlns:xlink="http://www.w3.org/1999/xlink" x="0px" y="0px"
	 viewBox="0 0 512 512" style="enable-background:new 0 0 512 512;" xml:space="preserve">
<style type="text/css">
	.st0{fill:#4F3030;}
	.st1{fill:#241616;}
	.st2{fill:#DF3A5C;}
</style>
<circle class="st0" cx="256" cy="256" r="256"/>
<path class="st1" d="M233.6,511c7.4,0.6,14.8,1,22.4,1c141.4,0,256-114.6,256-256c0-8.4-0.4-16.7-1.2-24.8L394.4,114.8h-53.7v100.9
	c-16.6-18.9-36.2-28.3-58.9-28.3c-10.8,0-20.7,1.7-29.8,5.1l-77.7-77.7h-56.6V395L233.6,511z"/>
<g>
	<path class="st2" d="M117.6,395V114.8h56.6V395L117.6,395L117.6,395z"/>
	<path class="st2" d="M394.4,395h-49.9v-29.8c-16.8,23.5-40.9,34.4-63.5,34.4c-23.3,0-43.3-9.4-59.9-28.2
		c-16.6-18.8-24.9-45-24.9-78.7c0-34.4,8.1-60.6,24.3-78.5c16.2-17.9,36.6-26.9,61.4-26.9c22.7,0,42.3,9.4,58.9,28.3V114.8h53.7
		L394.4,395L394.4,395z M251,289.1c0,21.7,3,37.3,9,47c8.7,14,20.8,21,36.3,21c12.4,0,22.9-5.3,31.5-15.8c8.7-10.5,13-26.2,13-47.1
		c0-23.3-4.2-40.1-12.6-50.4c-8.4-10.3-19.2-15.4-32.3-15.4c-12.7,0-23.4,5.1-32,15.2C255.3,253.8,251,269,251,289.1z"/>
</g>
</svg>
