<?xml version="1.0" encoding="utf-8"?>
<!-- Generator: Adobe Illustrator 25.2.3, SVG Export Plug-In . SVG Version: 6.00 Build 0)  -->
<svg version="1.1" id="Capa_1" xmlns="http://www.w3.org/2000/svg" xmlns:xlink="http://www.w3.org/1999/xlink" x="0px" y="0px"
	 viewBox="0 0 512 512" style="enable-background:new 0 0 512 512;" xml:space="preserve">
<style type="text/css">
	.st0{fill:#592B49;}
	.st1{fill:#291221;}
	.st2{fill:#DA2286;}
</style>
<circle class="st0" cx="256" cy="256" r="256"/>
<path class="st1" d="M511.4,239.3l-88-88H384v74.2c-12.2-13.9-26.6-20.8-43.3-20.8c-4.4,0-8.6,0.4-12.6,1.2l-54.5-54.5h-48.2
	l-31,50.7l-50.7-50.7H95.1l63.8,98.5L88.5,357.3l154.4,154.4c4.3,0.2,8.7,0.3,13.1,0.3c141.4,0,256-114.6,256-256
	C512,250.4,511.8,244.8,511.4,239.3z"/>
<g>
	<path class="st2" d="M88.5,357.3l70.4-107.5l-63.8-98.5h48.6l41.3,66.2l40.5-66.2h48.2l-64.1,100L280,357.3h-50.1l-45.7-71.2
		l-45.8,71.2L88.5,357.3L88.5,357.3z"/>
	<path class="st2" d="M423.5,357.3h-36.7v-21.9c-6.1,8.5-13.3,14.9-21.6,19c-8.3,4.2-16.6,6.3-25.1,6.3c-17.1,0-31.8-6.9-44-20.7
		c-12.2-13.8-18.3-33.1-18.3-57.8c0-25.3,5.9-44.5,17.8-57.7c11.9-13.2,26.9-19.7,45.1-19.7c16.7,0,31.1,6.9,43.3,20.8v-74.2h39.5
		L423.5,357.3L423.5,357.3z M318.1,279.5c0,15.9,2.2,27.4,6.6,34.6c6.4,10.3,15.3,15.5,26.7,15.5c9.1,0,16.8-3.9,23.2-11.6
		c6.4-7.7,9.6-19.3,9.6-34.6c0-17.1-3.1-29.5-9.3-37c-6.2-7.5-14.1-11.3-23.7-11.3c-9.4,0-17.2,3.7-23.5,11.2
		C321.3,253.5,318.1,264.7,318.1,279.5z"/>
</g>
</svg>
