<?xml version="1.0" encoding="utf-8"?>
<!-- Generator: Adobe Illustrator 25.2.3, SVG Export Plug-In . SVG Version: 6.00 Build 0)  -->
<svg version="1.1" id="Capa_1" xmlns="http://www.w3.org/2000/svg" xmlns:xlink="http://www.w3.org/1999/xlink" x="0px" y="0px"
	 viewBox="0 0 512 512" style="enable-background:new 0 0 512 512;" xml:space="preserve">
<style type="text/css">
	.st0{fill:#FF8D3F;}
	.st1{fill:#FFFFFF;}
</style>
<circle class="st0" cx="256" cy="256" r="256"/>
<g>
	<path class="st1" d="M302.7,357.6h-47.8l-19-49.5h-87.1l-18,49.5H84.2L169,139.9h46.5L302.7,357.6z M221.7,271.5l-30-80.8
		l-29.4,80.8H221.7z"/>
	<path class="st1" d="M401.8,307.4l41.6,7c-5.3,15.3-13.8,26.9-25.3,34.8c-11.5,8-26,12-43.3,12c-27.4,0-47.7-9-60.9-26.9
		c-10.4-14.4-15.6-32.5-15.6-54.4c0-26.1,6.8-46.6,20.5-61.4c13.7-14.8,30.9-22.2,51.8-22.2c23.5,0,42,7.8,55.6,23.2
		c13.6,15.5,20.1,39.2,19.5,71.2H341.1c0.3,12.4,3.7,22,10.1,28.9c6.4,6.9,14.5,10.3,24.1,10.3c6.5,0,12-1.8,16.5-5.3
		C396.2,321.1,399.6,315.4,401.8,307.4z M404.2,265.2c-0.3-12.1-3.4-21.3-9.4-27.6c-5.9-6.3-13.2-9.4-21.7-9.4
		c-9.1,0-16.6,3.3-22.6,10c-5.9,6.6-8.9,15.6-8.8,27L404.2,265.2L404.2,265.2z"/>
</g>
</svg>
