<?xml version="1.0" encoding="utf-8"?>
<!-- Generator: Adobe Illustrator 25.2.3, SVG Export Plug-In . SVG Version: 6.00 Build 0)  -->
<svg version="1.1" id="Calque_1" xmlns="http://www.w3.org/2000/svg" xmlns:xlink="http://www.w3.org/1999/xlink" x="0px" y="0px"
	 viewBox="0 0 2500 1702" style="enable-background:new 0 0 2500 1702;" xml:space="preserve">
<style type="text/css">
	.st0{fill-rule:evenodd;clip-rule:evenodd;fill:#444444;}
</style>
<g>
	<path class="st0" d="M1955.8,1302.1c-91.2-2.3-161.9,6.8-221.2,32c-17.1,6.9-44.4,6.9-46.8,28.6c9.2,9.1,10.3,24,18.3,36.6
		c13.6,22.9,37.5,53.7,59.2,69.7c23.9,18.3,47.9,36.5,73,52.5c44.4,27.6,94.6,43.5,137.9,70.9c25.2,16,50.1,36.5,75.3,53.7
		c12.5,9.1,20.4,24,36.4,29.7v-3.5c-8-10.3-10.3-25.1-18.2-36.6c-11.4-11.3-22.8-21.7-34.2-33.1c-33.1-44.6-74.2-83.4-118.5-115.4
		c-36.5-25.2-116.3-59.5-131.1-101.7l-2.3-2.3c25.1-2.3,54.8-11.5,78.7-18.4c38.7-10.3,74-7.9,113.9-18.2
		c18.3-4.6,36.5-10.4,54.8-16v-10.4c-20.6-20.5-35.4-48-57-67.4c-58.1-50.3-122-99.4-188.1-140.6c-35.4-22.9-81-37.6-118.6-57.1
		c-13.6-6.9-36.4-10.3-44.4-21.8c-20.5-25.1-32-58.2-46.8-88c-33-62.8-65-132.5-93.5-198.9c-20.5-44.6-33.1-89.1-58.1-130.3
		c-117.5-194.4-245.1-312-441.2-427.5c-42.2-24-92.3-34.3-145.9-46.9c-28.5-1.2-57-3.4-85.5-4.5c-18.3-8-36.5-29.8-52.5-40.1
		c-65-41.1-232.5-130.3-280.4-12.5C388.4,159.1,464.8,232.2,491,270c19.4,26.3,44.5,56,58.1,85.7c8,19.4,10.3,40,18.3,60.6
		c18.2,50.3,35.3,106.3,59.3,153.2c12.5,24,26.2,49.2,42.1,70.8c9.2,12.7,25.1,18.3,28.5,38.9c-15.9,22.8-17.1,57.1-26.3,85.7
		c-41,129.2-25.1,289.2,33.1,384c18.2,28.6,61.6,91.5,119.7,67.4c51.3-20.5,39.9-85.7,54.7-142.8c3.4-13.8,1.1-22.9,7.9-32v2.3
		c16,31.9,32,62.7,46.8,94.8c35.4,55.9,96.9,114.3,148.2,153.1c27.3,20.7,49,56,83.2,68.6v-3.5h-2.2c-6.9-10.3-17.1-14.9-26.2-22.8
		c-20.5-20.6-43.3-45.7-59.3-68.6c-47.9-64-90.1-134.9-127.6-208C931,1022,915,983.1,900.2,947.7c-6.8-13.7-6.8-34.3-18.2-41.1
		c-17.1,25.1-42.2,46.9-54.7,77.6c-21.7,49.2-23.9,109.8-32,172.7c-4.5,1.2-2.2,0-4.5,2.3c-36.4-9.1-49-46.8-62.7-78.7
		c-34.2-81.3-39.9-211.6-10.3-305.3c7.9-24,42.2-99.4,28.5-122.3c-6.9-21.8-29.7-34.3-42.2-51.5c-14.8-21.7-30.8-49.1-41-73.1
		c-27.4-64-41.1-134.9-70.7-198.9c-13.7-29.8-37.7-60.6-57-88c-21.7-30.9-45.6-52.6-62.7-89.1c-5.7-12.6-13.6-33.2-4.6-46.9
		c2.2-9.2,6.9-12.6,16-14.9c14.7-12.6,57,3.4,71.8,10.2c42.2,17.1,77.5,33.2,112.8,57.2c16,11.5,33.1,33.2,53.6,38.9h24
		c36.5,7.9,77.5,2.2,111.8,12.5c60.4,19.4,115.1,48,164.1,78.9c149.3,94.9,272.4,229.8,355.6,390.9c13.7,26.3,19.5,50.3,32,77.7
		c23.9,56.1,53.6,113.3,77.5,168.1c23.9,53.7,46.8,108.5,81,153.2c17.1,24,85.5,36.5,116.3,49.1c22.8,10.2,58.1,19.4,78.7,32
		c38.8,24,77.4,51.4,114,77.8C1895.4,1250.6,1952.4,1279.2,1955.8,1302.1"/>
	<path class="st0" d="M793,308.7c-15.8-0.1-31.5,1.8-46.7,5.7v2.3h2.2c9.2,18.2,25.2,30.9,36.5,46.9c9.2,18.3,17.2,36.5,26.3,54.8
		c1.1-1.1,2.2-2.3,2.2-2.3c16.1-11.4,24-29.7,24-57.1c-6.9-8.1-8-16-13.7-24C817,323.6,802.2,317.9,793,308.7"/>
</g>
</svg>
